<svg height="512pt" viewBox="0 -45 512 512" width="512pt" xmlns="http://www.w3.org/2000/svg"><path d="m139.980469 231.984375-54.980469 16.015625-50.789062 45.050781c22.46875 38.878907 54.863281 71.273438 93.738281 93.738281l45.050781-45.789062 16.015625-59.980469c-20.3125-11.773437-37.261719-28.722656-49.035156-49.035156zm0 0" fill="#ffda2d"/><path d="m390 165c0 24.386719-6.550781 47.265625-17.980469 66.984375l35.980469 36.015625 69.789062 25.050781c21.761719-37.652343 34.210938-81.378906 34.210938-128.050781zm0 0" fill="#e63950"/><path d="m256 299-9 54 9 68c46.675781 0 90.402344-12.453125 128.050781-34.210938l-27.050781-68.789062-34.015625-36.980469c-19.71875 11.429688-42.597656 17.980469-66.984375 17.980469zm0 0" fill="#ff9100"/><path d="m189.015625 281.019531-61.066406 105.769531c37.652343 21.761719 81.378906 34.210938 128.050781 34.210938v-122c-24.386719 0-47.265625-6.550781-66.984375-17.980469zm0 0" fill="#fdbf00"/><path d="m0 165c0 46.675781 12.453125 90.402344 34.210938 128.050781l105.769531-61.066406c-11.429688-19.71875-17.980469-42.597656-17.980469-66.984375zm0 0" fill="#fff261"/><path d="m322.984375 281.019531 61.066406 105.769531c38.878907-22.46875 71.273438-54.863281 93.738281-93.738281l-105.769531-61.066406c-11.773437 20.3125-28.722656 37.261719-49.035156 49.035156zm0 0" fill="#ff637b"/><path d="m256 150c-24.8125 0-45-20.1875-45-45s20.1875-45 45-45 45 20.1875 45 45-20.1875 45-45 45zm0 0" fill="#ffbfab"/><path d="m256 60v90c24.8125 0 45-20.1875 45-45s-20.1875-45-45-45zm0 0" fill="#ffa78f"/><path d="m256 150c-33.078125 0-60 26.921875-60 60v30h120v-30c0-33.078125-26.921875-60-60-60zm0 0" fill="#725d57"/><path d="m316 210v30h-60v-90c33.078125 0 60 26.921875 60 60zm0 0" fill="#53433f"/><path d="m0 0h120v30h-120zm0 0" fill="#725d57"/><path d="m0 60h120v30h-120zm0 0" fill="#725d57"/><path d="m150 0h30v30h-30zm0 0" fill="#ffda2d"/><path d="m150 60h30v30h-30zm0 0" fill="#fdbf00"/><path d="m332 0h120v30h-120zm0 0" fill="#53433f"/><path d="m332 60h120v30h-120zm0 0" fill="#53433f"/><path d="m482 0h30v30h-30zm0 0" fill="#ff637b"/><path d="m482 60h30v30h-30zm0 0" fill="#e63950"/></svg>