<svg xmlns="http://www.w3.org/2000/svg" width="342.405" height="346.404" viewBox="0 0 342.405 346.404">
  <defs>
    <style>
      .cls-1, .cls-15 {
        fill: #fff;
      }

      .cls-1 {
        font-size: 26px;
        font-family: Ubuntu-Medium, Ubuntu;
        font-weight: 500;
      }

      .cls-2 {
        fill: #fd757f;
      }

      .cls-3 {
        fill: #f06aad;
      }

      .cls-4 {
        fill: #4f76e0;
      }

      .cls-5 {
        fill: #8eb7f7;
      }

      .cls-6 {
        fill: #8a5cf0;
      }

      .cls-7 {
        fill: #95e05d;
      }

      .cls-8 {
        fill: #fa7b7b;
      }

      .cls-9 {
        fill: #ff9ac5;
      }

      .cls-10 {
        fill: #efe785;
      }

      .cls-11 {
        fill: #6bdbbd;
      }

      .cls-12 {
        fill: #e367de;
      }

      .cls-13 {
        fill: none;
        stroke: #000;
        stroke-width: 0.45px;
      }

      .cls-14 {
        fill: #f7c370;
      }
    </style>
  </defs>
  <g id="Group_1555" data-name="Group 1555" transform="translate(-4738.764 7275.058)">
    <g id="Group_1554" data-name="Group 1554" transform="translate(99 -44)">
      <g id="Group_1460" data-name="Group 1460" transform="translate(4426 -2369)">
        <g id="Group_1450" data-name="Group 1450" transform="translate(1 5)">
          <text id="Always_have_a_friend._Just_one_click_away" data-name="Always have a
friend. 
Just one click
away" class="cls-1" transform="translate(385 -4709)"><tspan x="-83.798" y="0">Always have a</tspan><tspan x="-43.29" y="30">friend. </tspan><tspan x="-81.367" y="60">Just one click</tspan><tspan x="-30.472" y="90">away</tspan></text>
          <g id="Group_1437" data-name="Group 1437" transform="translate(351.557 -4867.058)">
            <g id="Group_1412" data-name="Group 1412" transform="translate(0)">
              <g id="Group_1003" data-name="Group 1003" transform="translate(0)">
                <g id="Group_1000" data-name="Group 1000" transform="translate(7.22 20.66)">
                  <path id="Path_810" data-name="Path 810" class="cls-2" d="M69.586,128.049c5.165,8.608,0,18.407-5.165,16.685s-6.885,3.443-1.722,5.165,16.294-.8,22.38-6.885a5.333,5.333,0,0,1,3.443-1.722Z" transform="translate(-59.581 -128.049)"/>
                  <path id="Path_811" data-name="Path 811" class="cls-2" d="M232.276,128.049c-5.165,8.608,0,18.407,5.165,16.685s6.885,3.443,1.722,5.165-16.294-.8-22.38-6.885a5.332,5.332,0,0,0-3.443-1.722Z" transform="translate(-194.733 -128.049)"/>
                </g>
                <g id="Group_1001" data-name="Group 1001" transform="translate(0 27.545)">
                  <path id="Path_812" data-name="Path 812" class="cls-2" d="M291.867,184.938c-5.165,8.608,0,18.407,5.165,16.685s6.885,3.443,1.722,5.165-16.294-.8-22.38-6.885a5.333,5.333,0,0,0-3.443-1.722Z" transform="translate(-239.892 -184.938)"/>
                  <path id="Path_813" data-name="Path 813" class="cls-2" d="M10.006,184.938c5.165,8.608,0,18.407-5.165,16.685s-6.885,3.443-1.722,5.165,16.294-.8,22.38-6.885a5.333,5.333,0,0,1,3.443-1.722Z" transform="translate(-0.001 -184.938)"/>
                </g>
                <path id="Path_814" data-name="Path 814" class="cls-2" d="M57.166,11.4c-4.7,1.567-11.062-9.686-8.285-18.21A39.428,39.428,0,0,0,53.4-23.681c0-12.359-10.019-18.938-22.38-18.938S8.636-36.041,8.636-23.681A39.432,39.432,0,0,0,13.153-6.815C15.93,1.711,9.565,12.962,4.868,11.4c-5.163-1.72-6.889,5.165-1.72,6.887S17.455,17.2,23.806,11.4a11.761,11.761,0,0,1,7.21-3.443A11.761,11.761,0,0,1,38.229,11.4C44.582,17.2,53.724,20,58.887,18.283s3.443-8.608-1.722-6.885" transform="translate(-0.026 42.619)"/>
                <path id="Path_1103" data-name="Path 1103" d="M3.5,0A3.5,3.5,0,1,1,0,3.5,3.5,3.5,0,0,1,3.5,0Z" transform="translate(20.443 31.058)"/>
                <path id="Path_1102" data-name="Path 1102" d="M3.5,0A3.5,3.5,0,1,1,0,3.5,3.5,3.5,0,0,1,3.5,0Z" transform="translate(35.443 31.058)"/>
              </g>
            </g>
          </g>
          <g id="Group_1438" data-name="Group 1438" transform="matrix(0.866, 0.5, -0.5, 0.866, 442.06, -4859.44)">
            <g id="Group_1412-2" data-name="Group 1412" transform="translate(0)">
              <g id="Group_1003-2" data-name="Group 1003" transform="translate(0)">
                <g id="Group_1000-2" data-name="Group 1000" transform="translate(7.22 20.66)">
                  <path id="Path_810-2" data-name="Path 810" class="cls-3" d="M69.586,128.049c5.165,8.608,0,18.407-5.165,16.685s-6.885,3.443-1.722,5.165,16.294-.8,22.38-6.885a5.333,5.333,0,0,1,3.443-1.722Z" transform="translate(-59.581 -128.049)"/>
                  <path id="Path_811-2" data-name="Path 811" class="cls-3" d="M232.276,128.049c-5.165,8.608,0,18.407,5.165,16.685s6.885,3.443,1.722,5.165-16.294-.8-22.38-6.885a5.332,5.332,0,0,0-3.443-1.722Z" transform="translate(-194.733 -128.049)"/>
                </g>
                <g id="Group_1001-2" data-name="Group 1001" transform="translate(0 27.545)">
                  <path id="Path_812-2" data-name="Path 812" class="cls-3" d="M291.867,184.938c-5.165,8.608,0,18.407,5.165,16.685s6.885,3.443,1.722,5.165-16.294-.8-22.38-6.885a5.333,5.333,0,0,0-3.443-1.722Z" transform="translate(-239.892 -184.938)"/>
                  <path id="Path_813-2" data-name="Path 813" class="cls-3" d="M10.006,184.938c5.165,8.608,0,18.407-5.165,16.685s-6.885,3.443-1.722,5.165,16.294-.8,22.38-6.885a5.333,5.333,0,0,1,3.443-1.722Z" transform="translate(-0.001 -184.938)"/>
                </g>
                <path id="Path_814-2" data-name="Path 814" class="cls-3" d="M57.166,11.4c-4.7,1.567-11.062-9.686-8.285-18.21A39.428,39.428,0,0,0,53.4-23.681c0-12.359-10.019-18.938-22.38-18.938S8.636-36.041,8.636-23.681A39.432,39.432,0,0,0,13.153-6.815C15.93,1.711,9.565,12.962,4.868,11.4c-5.163-1.72-6.889,5.165-1.72,6.887S17.455,17.2,23.806,11.4a11.761,11.761,0,0,1,7.21-3.443A11.761,11.761,0,0,1,38.229,11.4C44.582,17.2,53.724,20,58.887,18.283s3.443-8.608-1.722-6.885" transform="translate(-0.026 42.619)"/>
              </g>
            </g>
          </g>
          <g id="Group_1439" data-name="Group 1439" transform="translate(270.277 -4828.498) rotate(-30)">
            <g id="Group_1412-3" data-name="Group 1412" transform="translate(0)">
              <g id="Group_1003-3" data-name="Group 1003" transform="translate(0)">
                <g id="Group_1000-3" data-name="Group 1000" transform="translate(7.22 20.66)">
                  <path id="Path_810-3" data-name="Path 810" class="cls-4" d="M69.586,128.049c5.165,8.608,0,18.407-5.165,16.685s-6.885,3.443-1.722,5.165,16.294-.8,22.38-6.885a5.333,5.333,0,0,1,3.443-1.722Z" transform="translate(-59.581 -128.049)"/>
                  <path id="Path_811-3" data-name="Path 811" class="cls-4" d="M232.276,128.049c-5.165,8.608,0,18.407,5.165,16.685s6.885,3.443,1.722,5.165-16.294-.8-22.38-6.885a5.332,5.332,0,0,0-3.443-1.722Z" transform="translate(-194.733 -128.049)"/>
                </g>
                <g id="Group_1001-3" data-name="Group 1001" transform="translate(0 27.545)">
                  <path id="Path_812-3" data-name="Path 812" class="cls-4" d="M291.867,184.938c-5.165,8.608,0,18.407,5.165,16.685s6.885,3.443,1.722,5.165-16.294-.8-22.38-6.885a5.333,5.333,0,0,0-3.443-1.722Z" transform="translate(-239.892 -184.938)"/>
                  <path id="Path_813-3" data-name="Path 813" class="cls-4" d="M10.006,184.938c5.165,8.608,0,18.407-5.165,16.685s-6.885,3.443-1.722,5.165,16.294-.8,22.38-6.885a5.333,5.333,0,0,1,3.443-1.722Z" transform="translate(-0.001 -184.938)"/>
                </g>
                <path id="Path_814-3" data-name="Path 814" class="cls-4" d="M57.166,11.4c-4.7,1.567-11.062-9.686-8.285-18.21A39.428,39.428,0,0,0,53.4-23.681c0-12.359-10.019-18.938-22.38-18.938S8.636-36.041,8.636-23.681A39.432,39.432,0,0,0,13.153-6.815C15.93,1.711,9.565,12.962,4.868,11.4c-5.163-1.72-6.889,5.165-1.72,6.887S17.455,17.2,23.806,11.4a11.761,11.761,0,0,1,7.21-3.443A11.761,11.761,0,0,1,38.229,11.4C44.582,17.2,53.724,20,58.887,18.283s3.443-8.608-1.722-6.885" transform="translate(-0.026 42.619)"/>
              </g>
            </g>
          </g>
          <g id="Group_1440" data-name="Group 1440" transform="translate(515.561 -4806.593) rotate(60)">
            <g id="Group_1412-4" data-name="Group 1412" transform="translate(0)">
              <g id="Group_1003-4" data-name="Group 1003" transform="translate(0)">
                <g id="Group_1000-4" data-name="Group 1000" transform="translate(7.22 20.66)">
                  <path id="Path_810-4" data-name="Path 810" class="cls-5" d="M69.586,128.049c5.165,8.608,0,18.407-5.165,16.685s-6.885,3.443-1.722,5.165,16.294-.8,22.38-6.885a5.333,5.333,0,0,1,3.443-1.722Z" transform="translate(-59.581 -128.049)"/>
                  <path id="Path_811-4" data-name="Path 811" class="cls-5" d="M232.276,128.049c-5.165,8.608,0,18.407,5.165,16.685s6.885,3.443,1.722,5.165-16.294-.8-22.38-6.885a5.332,5.332,0,0,0-3.443-1.722Z" transform="translate(-194.733 -128.049)"/>
                </g>
                <g id="Group_1001-4" data-name="Group 1001" transform="translate(0 27.545)">
                  <path id="Path_812-4" data-name="Path 812" class="cls-5" d="M291.867,184.938c-5.165,8.608,0,18.407,5.165,16.685s6.885,3.443,1.722,5.165-16.294-.8-22.38-6.885a5.333,5.333,0,0,0-3.443-1.722Z" transform="translate(-239.892 -184.938)"/>
                  <path id="Path_813-4" data-name="Path 813" class="cls-5" d="M10.006,184.938c5.165,8.608,0,18.407-5.165,16.685s-6.885,3.443-1.722,5.165,16.294-.8,22.38-6.885a5.333,5.333,0,0,1,3.443-1.722Z" transform="translate(-0.001 -184.938)"/>
                </g>
                <path id="Path_814-4" data-name="Path 814" class="cls-5" d="M57.166,11.4c-4.7,1.567-11.062-9.686-8.285-18.21A39.428,39.428,0,0,0,53.4-23.681c0-12.359-10.019-18.938-22.38-18.938S8.636-36.041,8.636-23.681A39.432,39.432,0,0,0,13.153-6.815C15.93,1.711,9.565,12.962,4.868,11.4c-5.163-1.72-6.889,5.165-1.72,6.887S17.455,17.2,23.806,11.4a11.761,11.761,0,0,1,7.21-3.443A11.761,11.761,0,0,1,38.229,11.4C44.582,17.2,53.724,20,58.887,18.283s3.443-8.608-1.722-6.885" transform="translate(-0.026 42.619)"/>
              </g>
            </g>
          </g>
          <g id="Group_1441" data-name="Group 1441" transform="matrix(0.485, -0.875, 0.875, 0.485, 218.59, -4754.185)">
            <g id="Group_1412-5" data-name="Group 1412" transform="translate(0)">
              <g id="Group_1003-5" data-name="Group 1003" transform="translate(0)">
                <g id="Group_1000-5" data-name="Group 1000" transform="translate(7.22 20.66)">
                  <path id="Path_810-5" data-name="Path 810" class="cls-6" d="M69.586,128.049c5.165,8.608,0,18.407-5.165,16.685s-6.885,3.443-1.722,5.165,16.294-.8,22.38-6.885a5.333,5.333,0,0,1,3.443-1.722Z" transform="translate(-59.581 -128.049)"/>
                  <path id="Path_811-5" data-name="Path 811" class="cls-6" d="M232.276,128.049c-5.165,8.608,0,18.407,5.165,16.685s6.885,3.443,1.722,5.165-16.294-.8-22.38-6.885a5.332,5.332,0,0,0-3.443-1.722Z" transform="translate(-194.733 -128.049)"/>
                </g>
                <g id="Group_1001-5" data-name="Group 1001" transform="translate(0 27.545)">
                  <path id="Path_812-5" data-name="Path 812" class="cls-6" d="M291.867,184.938c-5.165,8.608,0,18.407,5.165,16.685s6.885,3.443,1.722,5.165-16.294-.8-22.38-6.885a5.333,5.333,0,0,0-3.443-1.722Z" transform="translate(-239.892 -184.938)"/>
                  <path id="Path_813-5" data-name="Path 813" class="cls-6" d="M10.006,184.938c5.165,8.608,0,18.407-5.165,16.685s-6.885,3.443-1.722,5.165,16.294-.8,22.38-6.885a5.333,5.333,0,0,1,3.443-1.722Z" transform="translate(-0.001 -184.938)"/>
                </g>
                <path id="Path_814-5" data-name="Path 814" class="cls-6" d="M57.166,11.4c-4.7,1.567-11.062-9.686-8.285-18.21A39.428,39.428,0,0,0,53.4-23.681c0-12.359-10.019-18.938-22.38-18.938S8.636-36.041,8.636-23.681A39.432,39.432,0,0,0,13.153-6.815C15.93,1.711,9.565,12.962,4.868,11.4c-5.163-1.72-6.889,5.165-1.72,6.887S17.455,17.2,23.806,11.4a11.761,11.761,0,0,1,7.21-3.443A11.761,11.761,0,0,1,38.229,11.4C44.582,17.2,53.724,20,58.887,18.283s3.443-8.608-1.722-6.885" transform="translate(-0.026 42.619)"/>
              </g>
            </g>
          </g>
          <g id="Group_1442" data-name="Group 1442" transform="matrix(-0.485, 0.875, -0.875, -0.485, 548.344, -4635.624)">
            <g id="Group_1412-6" data-name="Group 1412" transform="translate(0 0)">
              <g id="Group_1003-6" data-name="Group 1003">
                <g id="Group_1000-6" data-name="Group 1000" transform="translate(7.22 20.66)">
                  <path id="Path_810-6" data-name="Path 810" class="cls-7" d="M10,0C15.17,8.608,10,18.407,4.84,16.685s-6.885,3.443-1.722,5.165,16.294-.8,22.38-6.885a5.333,5.333,0,0,1,3.443-1.722Z" transform="translate(0 0)"/>
                  <path id="Path_811-6" data-name="Path 811" class="cls-7" d="M18.936,0c-5.165,8.608,0,18.407,5.165,16.685s6.885,3.443,1.722,5.165-16.294-.8-22.38-6.885A5.332,5.332,0,0,0,0,13.242Z" transform="translate(18.607 0)"/>
                </g>
                <g id="Group_1001-6" data-name="Group 1001" transform="translate(0 27.545)">
                  <path id="Path_812-6" data-name="Path 812" class="cls-7" d="M18.936,0c-5.165,8.608,0,18.407,5.165,16.685s6.885,3.443,1.722,5.165-16.294-.8-22.38-6.885A5.333,5.333,0,0,0,0,13.242Z" transform="translate(33.039 0)"/>
                  <path id="Path_813-6" data-name="Path 813" class="cls-7" d="M10,0C15.17,8.608,10,18.407,4.84,16.685s-6.885,3.443-1.722,5.165,16.294-.8,22.38-6.885a5.333,5.333,0,0,1,3.443-1.722Z" transform="translate(0 0)"/>
                </g>
                <path id="Path_814-6" data-name="Path 814" class="cls-7" d="M57.138,54.014c-4.7,1.567-11.062-9.686-8.285-18.21a39.428,39.428,0,0,0,4.515-16.866C53.369,6.578,43.35,0,30.988,0S8.608,6.578,8.608,18.938A39.432,39.432,0,0,0,13.125,35.8C15.9,44.33,9.537,55.581,4.841,54.014c-5.163-1.72-6.889,5.165-1.72,6.887s14.307-1.08,20.658-6.885a11.761,11.761,0,0,1,7.21-3.443A11.761,11.761,0,0,1,38.2,54.016C44.554,59.823,53.7,62.624,58.859,60.9s3.443-8.608-1.722-6.885" transform="translate(0.001 0)"/>
              </g>
            </g>
          </g>
          <g id="Group_1444" data-name="Group 1444" transform="translate(326.033 -4530.272) rotate(-150)">
            <g id="Group_1412-7" data-name="Group 1412" transform="translate(0 0)">
              <g id="Group_1003-7" data-name="Group 1003">
                <g id="Group_1000-7" data-name="Group 1000" transform="translate(7.22 20.66)">
                  <path id="Path_810-7" data-name="Path 810" class="cls-8" d="M10,0C15.17,8.608,10,18.407,4.84,16.685s-6.885,3.443-1.722,5.165,16.294-.8,22.38-6.885a5.333,5.333,0,0,1,3.443-1.722Z" transform="translate(0 0)"/>
                  <path id="Path_811-7" data-name="Path 811" class="cls-8" d="M18.936,0c-5.165,8.608,0,18.407,5.165,16.685s6.885,3.443,1.722,5.165-16.294-.8-22.38-6.885A5.332,5.332,0,0,0,0,13.242Z" transform="translate(18.607 0)"/>
                </g>
                <g id="Group_1001-7" data-name="Group 1001" transform="translate(0 27.545)">
                  <path id="Path_812-7" data-name="Path 812" class="cls-8" d="M18.936,0c-5.165,8.608,0,18.407,5.165,16.685s6.885,3.443,1.722,5.165-16.294-.8-22.38-6.885A5.333,5.333,0,0,0,0,13.242Z" transform="translate(33.039 0)"/>
                  <path id="Path_813-7" data-name="Path 813" class="cls-8" d="M10,0C15.17,8.608,10,18.407,4.84,16.685s-6.885,3.443-1.722,5.165,16.294-.8,22.38-6.885a5.333,5.333,0,0,1,3.443-1.722Z" transform="translate(0 0)"/>
                </g>
                <path id="Path_814-7" data-name="Path 814" class="cls-8" d="M57.138,54.014c-4.7,1.567-11.062-9.686-8.285-18.21a39.428,39.428,0,0,0,4.515-16.866C53.369,6.578,43.35,0,30.988,0S8.608,6.578,8.608,18.938A39.432,39.432,0,0,0,13.125,35.8C15.9,44.33,9.537,55.581,4.841,54.014c-5.163-1.72-6.889,5.165-1.72,6.887s14.307-1.08,20.658-6.885a11.761,11.761,0,0,1,7.21-3.443A11.761,11.761,0,0,1,38.2,54.016C44.554,59.823,53.7,62.624,58.859,60.9s3.443-8.608-1.722-6.885" transform="translate(0.001 0)"/>
              </g>
            </g>
          </g>
          <g id="Group_1445" data-name="Group 1445" transform="translate(252.373 -4582.215) rotate(-120)">
            <g id="Group_1412-8" data-name="Group 1412" transform="translate(0 0)">
              <g id="Group_1003-8" data-name="Group 1003">
                <g id="Group_1000-8" data-name="Group 1000" transform="translate(7.22 20.66)">
                  <path id="Path_810-8" data-name="Path 810" class="cls-9" d="M10,0C15.17,8.608,10,18.407,4.84,16.685s-6.885,3.443-1.722,5.165,16.294-.8,22.38-6.885a5.333,5.333,0,0,1,3.443-1.722Z" transform="translate(0 0)"/>
                  <path id="Path_811-8" data-name="Path 811" class="cls-9" d="M18.936,0c-5.165,8.608,0,18.407,5.165,16.685s6.885,3.443,1.722,5.165-16.294-.8-22.38-6.885A5.332,5.332,0,0,0,0,13.242Z" transform="translate(18.606 0)"/>
                </g>
                <g id="Group_1001-8" data-name="Group 1001" transform="translate(0 27.545)">
                  <path id="Path_812-8" data-name="Path 812" class="cls-9" d="M18.936,0c-5.165,8.608,0,18.407,5.165,16.685s6.885,3.443,1.722,5.165-16.294-.8-22.38-6.885A5.333,5.333,0,0,0,0,13.242Z" transform="translate(33.039 0)"/>
                  <path id="Path_813-8" data-name="Path 813" class="cls-9" d="M10,0C15.17,8.608,10,18.407,4.84,16.685s-6.885,3.443-1.722,5.165,16.294-.8,22.38-6.885a5.333,5.333,0,0,1,3.443-1.722Z" transform="translate(0 0)"/>
                </g>
                <path id="Path_814-8" data-name="Path 814" class="cls-9" d="M57.138,54.014c-4.7,1.567-11.062-9.686-8.285-18.21a39.428,39.428,0,0,0,4.515-16.866C53.369,6.578,43.35,0,30.988,0S8.608,6.578,8.608,18.938A39.432,39.432,0,0,0,13.125,35.8C15.9,44.33,9.537,55.581,4.841,54.014c-5.163-1.72-6.889,5.165-1.72,6.887s14.307-1.08,20.658-6.885a11.761,11.761,0,0,1,7.21-3.443A11.761,11.761,0,0,1,38.2,54.016C44.554,59.823,53.7,62.624,58.859,60.9s3.443-8.608-1.722-6.885" transform="translate(0.001 0)"/>
              </g>
            </g>
          </g>
          <g id="Group_1446" data-name="Group 1446" transform="translate(497.656 -4559.31) rotate(150)">
            <g id="Group_1412-9" data-name="Group 1412" transform="translate(0 0)">
              <g id="Group_1003-9" data-name="Group 1003">
                <g id="Group_1000-9" data-name="Group 1000" transform="translate(7.22 20.66)">
                  <path id="Path_810-9" data-name="Path 810" class="cls-10" d="M10,0C15.17,8.608,10,18.407,4.84,16.685s-6.885,3.443-1.722,5.165,16.294-.8,22.38-6.885a5.333,5.333,0,0,1,3.443-1.722Z" transform="translate(0 0)"/>
                  <path id="Path_811-9" data-name="Path 811" class="cls-10" d="M18.936,0c-5.165,8.608,0,18.407,5.165,16.685s6.885,3.443,1.722,5.165-16.294-.8-22.38-6.885A5.332,5.332,0,0,0,0,13.242Z" transform="translate(18.607 0)"/>
                </g>
                <g id="Group_1001-9" data-name="Group 1001" transform="translate(0 27.545)">
                  <path id="Path_812-9" data-name="Path 812" class="cls-10" d="M18.936,0c-5.165,8.608,0,18.407,5.165,16.685s6.885,3.443,1.722,5.165-16.294-.8-22.38-6.885A5.333,5.333,0,0,0,0,13.242Z" transform="translate(33.039 0)"/>
                  <path id="Path_813-9" data-name="Path 813" class="cls-10" d="M10,0C15.17,8.608,10,18.407,4.84,16.685s-6.885,3.443-1.722,5.165,16.294-.8,22.38-6.885a5.333,5.333,0,0,1,3.443-1.722Z" transform="translate(0 0)"/>
                </g>
                <path id="Path_814-9" data-name="Path 814" class="cls-10" d="M57.138,54.014c-4.7,1.567-11.062-9.686-8.285-18.21a39.428,39.428,0,0,0,4.515-16.866C53.369,6.578,43.35,0,30.988,0S8.608,6.578,8.608,18.938A39.432,39.432,0,0,0,13.125,35.8C15.9,44.33,9.537,55.581,4.841,54.014c-5.163-1.72-6.889,5.165-1.72,6.887s14.307-1.08,20.658-6.885a11.761,11.761,0,0,1,7.21-3.443A11.761,11.761,0,0,1,38.2,54.016C44.554,59.823,53.7,62.624,58.859,60.9s3.443-8.608-1.722-6.885" transform="translate(0.001 0)"/>
              </g>
            </g>
          </g>
          <g id="Group_1447" data-name="Group 1447" transform="translate(555.169 -4725.394) rotate(90)">
            <g id="Group_1412-10" data-name="Group 1412" transform="translate(0)">
              <g id="Group_1003-10" data-name="Group 1003" transform="translate(0)">
                <g id="Group_1000-10" data-name="Group 1000" transform="translate(7.22 20.66)">
                  <path id="Path_810-10" data-name="Path 810" class="cls-11" d="M69.586,128.049c5.165,8.608,0,18.407-5.165,16.685s-6.885,3.443-1.722,5.165,16.294-.8,22.38-6.885a5.333,5.333,0,0,1,3.443-1.722Z" transform="translate(-59.581 -128.049)"/>
                  <path id="Path_811-10" data-name="Path 811" class="cls-11" d="M232.276,128.049c-5.165,8.608,0,18.407,5.165,16.685s6.885,3.443,1.722,5.165-16.294-.8-22.38-6.885a5.332,5.332,0,0,0-3.443-1.722Z" transform="translate(-194.733 -128.049)"/>
                </g>
                <g id="Group_1001-10" data-name="Group 1001" transform="translate(0 27.545)">
                  <path id="Path_812-10" data-name="Path 812" class="cls-11" d="M291.867,184.938c-5.165,8.608,0,18.407,5.165,16.685s6.885,3.443,1.722,5.165-16.294-.8-22.38-6.885a5.333,5.333,0,0,0-3.443-1.722Z" transform="translate(-239.892 -184.938)"/>
                  <path id="Path_813-10" data-name="Path 813" class="cls-11" d="M10.006,184.938c5.165,8.608,0,18.407-5.165,16.685s-6.885,3.443-1.722,5.165,16.294-.8,22.38-6.885a5.333,5.333,0,0,1,3.443-1.722Z" transform="translate(-0.001 -184.938)"/>
                </g>
                <path id="Path_814-10" data-name="Path 814" class="cls-11" d="M57.166,11.4c-4.7,1.567-11.062-9.686-8.285-18.21A39.428,39.428,0,0,0,53.4-23.681c0-12.359-10.019-18.938-22.38-18.938S8.636-36.041,8.636-23.681A39.432,39.432,0,0,0,13.153-6.815C15.93,1.711,9.565,12.962,4.868,11.4c-5.163-1.72-6.889,5.165-1.72,6.887S17.455,17.2,23.806,11.4a11.761,11.761,0,0,1,7.21-3.443A11.761,11.761,0,0,1,38.229,11.4C44.582,17.2,53.724,20,58.887,18.283s3.443-8.608-1.722-6.885" transform="translate(-0.026 42.619)"/>
              </g>
            </g>
          </g>
          <g id="Group_1448" data-name="Group 1448" transform="translate(212.764 -4664.415) rotate(-90)">
            <g id="Group_1412-11" data-name="Group 1412" transform="translate(0 0)">
              <g id="Group_1003-11" data-name="Group 1003">
                <g id="Group_1000-11" data-name="Group 1000" transform="translate(7.22 20.66)">
                  <path id="Path_810-11" data-name="Path 810" class="cls-12" d="M10,0C15.17,8.608,10,18.407,4.84,16.685s-6.885,3.443-1.722,5.165,16.294-.8,22.38-6.885a5.333,5.333,0,0,1,3.443-1.722Z" transform="translate(0 0)"/>
                  <path id="Path_811-11" data-name="Path 811" class="cls-12" d="M18.936,0c-5.165,8.608,0,18.407,5.165,16.685s6.885,3.443,1.722,5.165-16.294-.8-22.38-6.885A5.332,5.332,0,0,0,0,13.242Z" transform="translate(18.606 0)"/>
                </g>
                <g id="Group_1001-11" data-name="Group 1001" transform="translate(0 27.545)">
                  <path id="Path_812-11" data-name="Path 812" class="cls-12" d="M18.936,0c-5.165,8.608,0,18.407,5.165,16.685s6.885,3.443,1.722,5.165-16.294-.8-22.38-6.885A5.333,5.333,0,0,0,0,13.242Z" transform="translate(33.039 0)"/>
                  <path id="Path_813-11" data-name="Path 813" class="cls-12" d="M10,0C15.17,8.608,10,18.407,4.84,16.685s-6.885,3.443-1.722,5.165,16.294-.8,22.38-6.885a5.333,5.333,0,0,1,3.443-1.722Z" transform="translate(0 0)"/>
                </g>
                <path id="Path_814-11" data-name="Path 814" class="cls-12" d="M57.138,54.014c-4.7,1.567-11.062-9.686-8.285-18.21a39.428,39.428,0,0,0,4.515-16.866C53.369,6.578,43.35,0,30.988,0S8.608,6.578,8.608,18.938A39.432,39.432,0,0,0,13.125,35.8C15.9,44.33,9.537,55.581,4.841,54.014c-5.163-1.72-6.889,5.165-1.72,6.887s14.307-1.08,20.658-6.885a11.761,11.761,0,0,1,7.21-3.443A11.761,11.761,0,0,1,38.2,54.016C44.554,59.823,53.7,62.624,58.859,60.9s3.443-8.608-1.722-6.885" transform="translate(0.001 0)"/>
              </g>
            </g>
          </g>
          <path id="Path_1073" data-name="Path 1073" class="cls-13" d="M-1513.169,2938.025l.326.326.742.438.849.4s.386.19.656.293a1.894,1.894,0,0,0,.422.121l.368.043.561.064h.373l.535-.064.72-.2.381-.095.416-.135.347-.12.733-.288.365-.214.347-.211.339-.257" transform="translate(1736.136 -7836.277) rotate(-3)"/>
          <path id="Path_1074" data-name="Path 1074" class="cls-13" d="M-1513.169,2938.025l.326.326.742.438.849.4s.386.19.656.293a1.894,1.894,0,0,0,.422.121l.368.043.561.064h.373l.535-.064.72-.2.381-.095.416-.135.347-.12.733-.288.365-.214.347-.211.339-.257" transform="translate(3223.289 -6597.134) rotate(30)"/>
          <path id="Path_1075" data-name="Path 1075" class="cls-13" d="M-1513.169,2938.025l.326.326.742.438.849.4s.386.19.656.293a1.894,1.894,0,0,0,.422.121l.368.043.561.064h.373l.535-.064.72-.2.381-.095.416-.135.347-.12.733-.288.365-.214.347-.211.339-.257" transform="translate(3792.684 -4920.127) rotate(60)"/>
          <path id="Path_1076" data-name="Path 1076" class="cls-13" d="M-1513.169,2938.025l.326.326.742.438.849.4s.386.19.656.293a1.894,1.894,0,0,0,.422.121l.368.043.561.064h.373l.535-.064.72-.2.381-.095.416-.135.347-.12.733-.288.365-.214.347-.211.339-.257" transform="translate(3450.953 -3184.534) rotate(90)"/>
          <path id="Path_1077" data-name="Path 1077" class="cls-13" d="M-1513.169,2938.025l.326.326.742.438.849.4s.386.19.656.293a1.894,1.894,0,0,0,.422.121l.368.043.561.064h.373l.535-.064.72-.2.381-.095.416-.135.347-.12.733-.288.365-.214.347-.211.339-.257" transform="matrix(0.848, -0.53, 0.53, 0.848, 42.364, -8098.377)"/>
          <path id="Path_1078" data-name="Path 1078" class="cls-13" d="M-1513.169,2938.025l.326.326.742.438.849.4s.386.19.656.293a1.894,1.894,0,0,0,.422.121l.368.043.561.064h.373l.535-.064.72-.2.381-.095.416-.135.347-.12.733-.288.365-.214.347-.211.339-.257" transform="translate(2285.754 -1853.257) rotate(120)"/>
          <path id="Path_1079" data-name="Path 1079" class="cls-13" d="M-1513.169,2938.025l.326.326.742.438.849.4s.386.19.656.293a1.894,1.894,0,0,0,.422.121l.368.043.561.064h.373l.535-.064.72-.2.381-.095.416-.135.347-.12.733-.288.365-.214.347-.211.339-.257" transform="translate(610.746 -1281.863) rotate(150)"/>
          <path id="Path_1081" data-name="Path 1081" class="cls-13" d="M-1513.169,2938.025l.326.326.742.438.849.4s.386.19.656.293a1.894,1.894,0,0,0,.422.121l.368.043.561.064h.373l.535-.064.72-.2.381-.095.416-.135.347-.12.733-.288.365-.214.347-.211.339-.257" transform="matrix(0.438, -0.899, 0.899, 0.438, -1706.885, -7403.997)"/>
          <path id="Path_1082" data-name="Path 1082" class="cls-13" d="M-1513.169,2938.025l.326.326.742.438.849.4s.386.19.656.293a1.894,1.894,0,0,0,.422.121l.368.043.561.064h.373l.535-.064.72-.2.381-.095.416-.135.347-.12.733-.288.365-.214.347-.211.339-.257" transform="translate(-2627.336 -6307.04) rotate(-88)"/>
          <path id="Path_1083" data-name="Path 1083" class="cls-13" d="M-1513.169,2938.025l.326.326.742.438.849.4s.386.19.656.293a1.894,1.894,0,0,0,.422.121l.368.043.561.064h.373l.535-.064.72-.2.381-.095.416-.135.347-.12.733-.288.365-.214.347-.211.339-.257" transform="translate(-2252.739 -2513.41) rotate(-156)"/>
          <path id="Path_1084" data-name="Path 1084" class="cls-13" d="M-1513.169,2938.025l.326.326.742.438.849.4s.386.19.656.293a1.894,1.894,0,0,0,.422.121l.368.043.561.064h.373l.535-.064.72-.2.381-.095.416-.135.347-.12.733-.288.365-.214.347-.211.339-.257" transform="translate(-3023.518 -4468.801) rotate(-120)"/>
          <g id="Group_1449" data-name="Group 1449" transform="translate(0 2)">
            <g id="Group_1443" data-name="Group 1443" transform="translate(353.557 -4584.058)">
              <g id="Group_1412-12" data-name="Group 1412" transform="translate(0)">
                <g id="Group_1003-12" data-name="Group 1003">
                  <g id="Group_1000-12" data-name="Group 1000" transform="translate(7.212 18.364)">
                    <path id="Path_810-12" data-name="Path 810" class="cls-14" d="M78.517,150.429c-5.165-8.608,0-18.407,5.165-16.685s6.885-3.443,1.722-5.165-16.294.8-22.38,6.885a5.333,5.333,0,0,1-3.443,1.722Z" transform="translate(-40.975 -128.049)"/>
                    <path id="Path_811-12" data-name="Path 811" class="cls-14" d="M223.345,150.429c5.165-8.608,0-18.407-5.165-16.685s-6.885-3.443-1.722-5.165,16.294.8,22.38,6.885a5.332,5.332,0,0,0,3.443,1.722Z" transform="translate(-213.34 -128.049)"/>
                  </g>
                  <g id="Group_1001-12" data-name="Group 1001" transform="translate(0 11.479)">
                    <path id="Path_812-12" data-name="Path 812" class="cls-14" d="M282.936,207.318c5.165-8.608,0-18.407-5.165-16.685s-6.885-3.443-1.722-5.165,16.294.8,22.38,6.885a5.333,5.333,0,0,0,3.443,1.722Z" transform="translate(-272.931 -184.938)"/>
                    <path id="Path_813-12" data-name="Path 813" class="cls-14" d="M18.937,207.318c-5.165-8.608,0-18.407,5.165-16.685s6.885-3.443,1.722-5.165-16.294.8-22.38,6.885A5.333,5.333,0,0,1,0,194.076Z" transform="translate(33.038 -184.938)"/>
                  </g>
                  <path id="Path_814-12" data-name="Path 814" class="cls-14" d="M4.866-35.229c4.7-1.567,11.062,9.686,8.285,18.21A39.428,39.428,0,0,0,8.635-.152c0,12.359,10.019,18.938,22.38,18.938S53.4,12.207,53.4-.152a39.432,39.432,0,0,0-4.517-16.866C46.1-25.545,52.467-36.8,57.164-35.229c5.163,1.72,6.889-5.165,1.72-6.887s-14.307,1.08-20.658,6.885a11.761,11.761,0,0,1-7.21,3.443A11.761,11.761,0,0,1,23.8-35.231c-6.353-5.807-15.5-8.608-20.658-6.885S-.3-33.508,4.868-35.231" transform="translate(-0.026 42.619)"/>
                </g>
              </g>
            </g>
            <path id="Path_1080" data-name="Path 1080" class="cls-13" d="M-1513.169,2938.025l.326.326.742.438.849.4s.386.19.656.293a1.894,1.894,0,0,0,.422.121l.368.043.561.064h.373l.535-.064.72-.2.381-.095.416-.135.347-.12.733-.288.365-.214.347-.211.339-.257" transform="translate(-1124.847 -1627.594) rotate(180)"/>
          </g>
        </g>
      </g>
      <g id="Group_1553" data-name="Group 1553" transform="translate(4212 -2881)">
        <g id="Group_1487" data-name="Group 1487">
          <g id="Group_1453" data-name="Group 1453" transform="translate(572.557 -4271.908)">
            <g id="Group_1412-13" data-name="Group 1412" transform="translate(0)">
              <g id="Group_1003-13" data-name="Group 1003" transform="translate(0)">
                <g id="Group_1000-13" data-name="Group 1000" transform="translate(5.719 16.363)">
                  <path id="Path_810-13" data-name="Path 810" class="cls-15" d="M67.505,128.049c4.091,6.817,0,14.579-4.091,13.215s-5.453,2.727-1.364,4.091,12.905-.632,17.726-5.453a4.224,4.224,0,0,1,2.727-1.364Z" transform="translate(-59.581 -128.049)"/>
                  <path id="Path_811-13" data-name="Path 811" class="cls-15" d="M228.337,128.049c-4.091,6.817,0,14.579,4.091,13.215s5.453,2.727,1.364,4.091-12.905-.632-17.726-5.453a4.223,4.223,0,0,0-2.727-1.364Z" transform="translate(-198.603 -128.049)"/>
                </g>
                <g id="Group_1001-13" data-name="Group 1001" transform="translate(0 21.816)">
                  <path id="Path_812-13" data-name="Path 812" class="cls-15" d="M287.928,184.938c-4.091,6.817,0,14.579,4.091,13.215s5.453,2.727,1.364,4.091-12.905-.632-17.726-5.453a4.224,4.224,0,0,0-2.727-1.364Z" transform="translate(-246.763 -184.938)"/>
                  <path id="Path_813-13" data-name="Path 813" class="cls-15" d="M7.925,184.938c4.091,6.817,0,14.579-4.091,13.215s-5.453,2.727-1.364,4.091,12.905-.632,17.726-5.453a4.224,4.224,0,0,1,2.727-1.364Z" transform="translate(-0.001 -184.938)"/>
                </g>
                <path id="Path_814-13" data-name="Path 814" class="cls-15" d="M45.282.161C41.559,1.4,36.521-7.51,38.721-14.262A31.228,31.228,0,0,0,42.3-27.62c0-9.789-7.935-15-17.726-15s-17.726,5.21-17.726,15a31.231,31.231,0,0,0,3.578,13.359C12.623-7.509,7.581,1.4,3.862.161-.228-1.2-1.595,4.252,2.5,5.616S13.83,4.76,18.861.163a9.315,9.315,0,0,1,5.711-2.727A9.315,9.315,0,0,1,30.283.163c5.032,4.6,12.272,6.817,16.361,5.453S49.372-1.2,45.281.163" transform="translate(-0.027 42.619)"/>
              </g>
            </g>
          </g>
          <path id="Path_1087" data-name="Path 1087" class="cls-13" d="M0,0,.226.187.74.438l.588.233s.268.109.454.169a1.511,1.511,0,0,0,.292.07l.255.024.388.037h.258l.37-.037.5-.112L4.109.767,4.4.689,4.637.62,5.144.455,5.4.331,5.637.21,5.871.062" transform="matrix(1, 0.017, -0.017, 1, 594.816, -4235.967)"/>
        </g>
      </g>
    </g>
    <path id="Path_1104" data-name="Path 1104" d="M3.5,0A3.5,3.5,0,1,1,0,3.5,3.5,3.5,0,0,1,3.5,0Z" transform="translate(4789 -7183)"/>
    <path id="Path_1126" data-name="Path 1126" d="M3,0A3,3,0,1,1,0,3,3,3,0,0,1,3,0Z" transform="translate(4899.866 -7172.134)"/>
    <path id="Path_1127" data-name="Path 1127" d="M3,0A3,3,0,1,1,0,3,3,3,0,0,1,3,0Z" transform="translate(4911 -7172)"/>
    <path id="Path_1105" data-name="Path 1105" d="M3.5,0A3.5,3.5,0,1,1,0,3.5,3.5,3.5,0,0,1,3.5,0Z" transform="translate(4968 -7230)"/>
    <path id="Path_1106" data-name="Path 1106" d="M3.5,0A3.5,3.5,0,1,1,0,3.5,3.5,3.5,0,0,1,3.5,0Z" transform="translate(4981 -7222)"/>
    <path id="Path_1107" data-name="Path 1107" d="M3.5,0A3.5,3.5,0,1,1,0,3.5,3.5,3.5,0,0,1,3.5,0Z" transform="translate(5021 -7181)"/>
    <path id="Path_1108" data-name="Path 1108" d="M3.5,0A3.5,3.5,0,1,1,0,3.5,3.5,3.5,0,0,1,3.5,0Z" transform="translate(5029 -7168)"/>
    <path id="Path_1109" data-name="Path 1109" d="M3.5,0A3.5,3.5,0,1,1,0,3.5,3.5,3.5,0,0,1,3.5,0Z" transform="translate(5044 -7112)"/>
    <path id="Path_1110" data-name="Path 1110" d="M3.5,0A3.5,3.5,0,1,1,0,3.5,3.5,3.5,0,0,1,3.5,0Z" transform="translate(5044 -7098)"/>
    <path id="Path_1111" data-name="Path 1111" d="M3.5,0A3.5,3.5,0,1,1,0,3.5,3.5,3.5,0,0,1,3.5,0Z" transform="translate(5029 -7043)"/>
    <path id="Path_1112" data-name="Path 1112" d="M3.5,0A3.5,3.5,0,1,1,0,3.5,3.5,3.5,0,0,1,3.5,0Z" transform="translate(5022 -7030)"/>
    <path id="Path_1113" data-name="Path 1113" d="M3.5,0A3.5,3.5,0,1,1,0,3.5,3.5,3.5,0,0,1,3.5,0Z" transform="translate(4984 -6987)"/>
    <path id="Path_1114" data-name="Path 1114" d="M3.5,0A3.5,3.5,0,1,1,0,3.5,3.5,3.5,0,0,1,3.5,0Z" transform="translate(4970 -6979)"/>
    <path id="Path_1115" data-name="Path 1115" d="M3.5,0A3.5,3.5,0,1,1,0,3.5,3.5,3.5,0,0,1,3.5,0Z" transform="translate(4915 -6966)"/>
    <path id="Path_1116" data-name="Path 1116" d="M3.5,0A3.5,3.5,0,1,1,0,3.5,3.5,3.5,0,0,1,3.5,0Z" transform="translate(4899 -6966)"/>
    <path id="Path_1117" data-name="Path 1117" d="M3.5,0A3.5,3.5,0,1,1,0,3.5,3.5,3.5,0,0,1,3.5,0Z" transform="translate(4846 -6983)"/>
    <path id="Path_1118" data-name="Path 1118" d="M3.5,0A3.5,3.5,0,1,1,0,3.5,3.5,3.5,0,0,1,3.5,0Z" transform="translate(4833 -6991)"/>
    <path id="Path_1119" data-name="Path 1119" d="M3.5,0A3.5,3.5,0,1,1,0,3.5,3.5,3.5,0,0,1,3.5,0Z" transform="translate(4794 -7031)"/>
    <path id="Path_1120" data-name="Path 1120" d="M3.5,0A3.5,3.5,0,1,1,0,3.5,3.5,3.5,0,0,1,3.5,0Z" transform="translate(4786 -7045)"/>
    <path id="Path_1121" data-name="Path 1121" d="M3.5,0A3.5,3.5,0,1,1,0,3.5,3.5,3.5,0,0,1,3.5,0Z" transform="translate(4771 -7100)"/>
    <path id="Path_1122" data-name="Path 1122" d="M3.5,0A3.5,3.5,0,1,1,0,3.5,3.5,3.5,0,0,1,3.5,0Z" transform="translate(4771 -7115)"/>
    <path id="Path_1123" data-name="Path 1123" d="M3.5,0A3.5,3.5,0,1,1,0,3.5,3.5,3.5,0,0,1,3.5,0Z" transform="translate(4782 -7170)"/>
    <path id="Path_1124" data-name="Path 1124" d="M3.5,0A3.5,3.5,0,1,1,0,3.5,3.5,3.5,0,0,1,3.5,0Z" transform="translate(4830 -7224)"/>
    <path id="Path_1125" data-name="Path 1125" d="M3.5,0A3.5,3.5,0,1,1,0,3.5,3.5,3.5,0,0,1,3.5,0Z" transform="translate(4843 -7231)"/>
  </g>
</svg>
