<svg xmlns="http://www.w3.org/2000/svg" xmlns:xlink="http://www.w3.org/1999/xlink" width="769.245" height="769.245" viewBox="0 0 769.245 769.245">
  <defs>
    <filter id="Path_1084" x="0" y="0" width="769.245" height="769.245" filterUnits="userSpaceOnUse">
      <feOffset dx="5" dy="10" input="SourceAlpha"/>
      <feGaussianBlur stdDeviation="5" result="blur"/>
      <feFlood flood-color="#1d1d1d" flood-opacity="0.604"/>
      <feComposite operator="in" in2="blur"/>
      <feComposite in="SourceGraphic"/>
    </filter>
  </defs>
  <g transform="matrix(1, 0, 0, 1, 0, 0)" filter="url(#Path_1084)">
    <g id="Path_1084-2" data-name="Path 1084" transform="translate(130.31 5) rotate(11)" fill="none">
      <path d="M315.26,0c174.113,0,315.26,141.147,315.26,315.26s-141.147,315.26-315.26,315.26A315.26,315.26,0,1,1,315.26,0Z" stroke="none"/>
      <path d="M 315.2603149414062 11.99993896484375 C 245.2286682128906 11.99993896484375 176.9054870605469 36.441650390625 122.8767700195312 80.82275390625 C 52.4129638671875 138.7041320800781 11.99993896484375 224.1533203125 11.99993896484375 315.2603149414062 C 11.99993896484375 398.9087524414062 47.01434326171875 479.6221313476562 108.0650634765625 536.7047119140625 C 164.4924926757812 589.4644775390625 238.0758666992188 618.5205688476562 315.2603149414062 618.5205688476562 C 482.4785766601562 618.5205688476562 618.5205688476562 482.4785766601562 618.5205688476562 315.2603149414062 C 618.5205688476562 148.0419616699219 482.4785766601562 11.99993896484375 315.2603149414062 11.99993896484375 M 315.2603149414062 -6.103515625e-05 C 489.373779296875 -6.103515625e-05 630.5205688476562 141.1468505859375 630.5205688476562 315.2603149414062 C 630.5205688476562 489.373779296875 489.373779296875 630.5205688476562 315.2603149414062 630.5205688476562 C 232.0345764160156 630.5205688476562 156.3410339355469 598.2711181640625 99.869384765625 545.4700317382812 C 38.4605712890625 488.0526733398438 -6.103515625e-05 406.14794921875 -6.103515625e-05 315.2603149414062 C -6.103515625e-05 217.0609436035156 44.8975830078125 129.3480529785156 115.2598876953125 71.550048828125 C 169.6990356445312 26.83184814453125 239.3462219238281 -6.103515625e-05 315.2603149414062 -6.103515625e-05 Z" stroke="none" fill="#5747d8"/>
    </g>
  </g>
</svg>
