<svg id="Group_1003" data-name="Group 1003" xmlns="http://www.w3.org/2000/svg" width="602.29" height="596.7" viewBox="0 0 602.29 596.7">
  <g id="Group_1000" data-name="Group 1000" transform="translate(70.163 200.765)">
    <path id="Path_810" data-name="Path 810" d="M156.8,128.049c50.191,83.645,0,178.875-50.191,162.138S39.7,323.642,89.876,340.378s158.341-7.749,217.482-66.909a51.82,51.82,0,0,1,33.454-16.737Z" transform="translate(-59.581 -128.049)" fill="#fff"/>
    <path id="Path_811" data-name="Path 811" d="M397.349,128.049c-50.191,83.645,0,178.875,50.192,162.138s66.908,33.454,16.737,50.191S305.935,332.63,246.794,273.47a51.817,51.817,0,0,0-33.454-16.737Z" transform="translate(-32.53 -128.049)" fill="#fff"/>
  </g>
  <g id="Group_1001" data-name="Group 1001" transform="translate(0 267.673)">
    <path id="Path_812" data-name="Path 812" d="M456.939,184.938c-50.191,83.645,0,178.875,50.192,162.138s66.909,33.454,16.737,50.191-158.342-7.748-217.482-66.908a51.819,51.819,0,0,0-33.454-16.737Z" transform="translate(48.128 -184.938)" fill="#fff"/>
    <path id="Path_813" data-name="Path 813" d="M97.224,184.938c50.191,83.645,0,178.875-50.191,162.138S-19.876,380.53,30.3,397.267s158.341-7.748,217.482-66.908a51.818,51.818,0,0,1,33.454-16.737Z" transform="translate(-0.001 -184.938)" fill="#fff"/>
  </g>
  <path id="Path_814" data-name="Path 814" d="M555.273,482.267C509.6,497.493,447.782,388.141,474.766,305.31a383.147,383.147,0,0,0,43.876-163.9c0-120.1-97.361-184.028-217.482-184.028S83.678,21.306,83.678,141.409a383.184,383.184,0,0,0,43.9,163.9C154.557,388.161,92.7,497.493,47.066,482.267c-50.172-16.717-66.947,50.191-16.717,66.928s139.028-10.5,200.745-66.909a114.291,114.291,0,0,1,70.066-33.454,114.291,114.291,0,0,1,70.086,33.454c61.737,56.429,150.574,83.645,200.745,66.909s33.454-83.645-16.737-66.909" transform="translate(-0.015 42.619)" fill="#fff"/>
  <path id="SVGCleanerId_0" d="M237.581,261.132a27.657,27.657,0,1,1,.019-.078" transform="translate(30.091 90.186)"/>
  <path id="Path_1039" data-name="Path 1039" d="M3238.632,1226.639c28.416,21.509,58.027,0,58.027,0" transform="translate(-2966.011 -807.563)" fill="none" stroke="#707070" stroke-width="1"/>
  <path id="SVGCleanerId_0-2" data-name="SVGCleanerId_0" d="M237.581,261.132a27.657,27.657,0,1,1,.019-.078" transform="translate(149.091 90.186)"/>
</svg>
