<?xml version="1.0" encoding="utf-8"?>
<!-- Generator: Adobe Illustrator 23.0.6, SVG Export Plug-In . SVG Version: 6.00 Build 0)  -->
<svg version="1.1" id="Layer_1" xmlns="http://www.w3.org/2000/svg" xmlns:xlink="http://www.w3.org/1999/xlink" x="0px" y="0px"
	 viewBox="0 0 1200 435" style="enable-background:new 0 0 1200 435;" xml:space="preserve">
<style type="text/css">
	.st0{fill:#7166DD;}
	.st1{font-family:'Arial-BoldMT';}
	.st2{font-size:379.8434px;}
	.st3{letter-spacing:-3.1;}
	.st4{fill:#FFFFFF;}
	.st5{fill:none;stroke:#000000;}
</style>
<g id="Group_1558" transform="translate(-92 -559)">
	<g id="Group_1556">
		<g id="Group_1555" transform="translate(-38 469)">
			<text transform="matrix(0.969 0 0 1 121.0003 436.6596)" class="st0 st1 st2 st3">Squish</text>
			<ellipse id="Ellipse_882" class="st4" cx="817.4" cy="180.2" rx="43.6" ry="44.1"/>
		</g>
	</g>
	<g id="Group_1557" transform="translate(0 -2)">
		<g id="Group_1465" transform="translate(783.557 641.26)">
			<g id="Group_1412" transform="translate(0)">
				<g id="Group_1003" transform="translate(3 -15)">
					<g id="Group_1000" transform="translate(9.498 27.176)">
						<path id="Path_810" class="st0" d="M9.8-2.7c6.4,10.8,0,23-6.4,20.9s-8.6,4.3-2.1,6.5s20.3-1,27.9-8.6c1.1-1.2,2.6-2,4.3-2.2
							L9.8-2.7z"/>
						<path id="Path_811" class="st0" d="M44.1-2.7c-6.4,10.8,0,23,6.4,20.9s8.6,4.3,2.1,6.5s-20.3-1-27.9-8.6
							c-1.1-1.2-2.6-2-4.3-2.2L44.1-2.7z"/>
					</g>
					<g id="Group_1001" transform="translate(0 36.233)">
						<path id="Path_812" class="st0" d="M62.6-3.2c-6.4,10.8,0,23,6.4,20.9c6.4-2.2,8.6,4.3,2.1,6.5c-6.4,2.2-20.3-1-27.9-8.6
							c-1.1-1.2-2.6-2-4.3-2.2L62.6-3.2z"/>
						<path id="Path_813" class="st0" d="M10.3-3.2c6.4,10.8,0,23-6.4,20.9s-8.6,4.3-2.2,6.5s20.3-1,27.9-8.6c1.1-1.2,2.6-2,4.3-2.2
							L10.3-3.2z"/>
					</g>
					<path id="Path_814" class="st0" d="M69.1,66.2c-5.9,2-13.8-12.1-10.3-22.8c3.4-6.5,5.4-13.7,5.6-21.1
						c0-15.5-12.5-23.7-27.9-23.7S8.5,6.8,8.5,22.3c0.3,7.4,2.2,14.6,5.6,21.1c3.5,10.7-4.5,24.8-10.3,22.8
						c-6.4-2.2-8.6,6.5-2.1,8.6c6.4,2.2,17.9-1.4,25.8-8.6c2.4-2.4,5.6-4,9-4.3c3.4,0.3,6.6,1.9,9,4.3c7.9,7.3,19.3,10.8,25.8,8.6
						C77.7,72.7,75.5,64,69.1,66.2"/>
					<path id="SVGCleanerId_0" class="st0" d="M32.1,43.8c0,2-1.6,3.6-3.6,3.6c-2,0-3.6-1.6-3.5-3.6c0-2,1.6-3.6,3.6-3.6
						C30.6,40.3,32.1,41.9,32.1,43.8"/>
					<g id="Group_1002" transform="translate(46.876 43.027)">
						<path id="SVGCleanerId_0_1_" class="st0" d="M3.9,0.8c0,2.4-1.9,4.3-4.3,4.3c-2.4,0-4.3-1.9-4.3-4.3c0-2.4,1.9-4.3,4.3-4.3
							l0,0C2-3.5,3.9-1.6,3.9,0.8"/>
					</g>
				</g>
			</g>
		</g>
		<ellipse id="Ellipse_883" cx="814.2" cy="669.3" rx="3.8" ry="3.8"/>
		<ellipse id="Ellipse_884" cx="831.2" cy="669.3" rx="3.8" ry="3.8"/>
		<path id="Path_354" class="st5" d="M816.5,677.8c0,0,3.6,2.2,6.7,2.2c2.1-0.1,4.1-0.9,5.8-2.2"/>
	</g>
</g>
</svg>
